<?xml version="1.0" standalone="no"?>
<!DOCTYPE svg PUBLIC "-//W3C//DTD SVG 20010904//EN"
 "http://www.w3.org/TR/2001/REC-SVG-20010904/DTD/svg10.dtd">
<svg version="1.0" xmlns="http://www.w3.org/2000/svg"
 width="900.000000pt" height="636.000000pt" viewBox="0 0 900.000000 636.000000"
 preserveAspectRatio="xMidYMid meet">
<metadata>
Created by potrace 1.10, written by Peter Selinger 2001-2011
</metadata>
<g transform="translate(0.000000,636.000000) scale(0.100000,-0.100000)"
fill="#1d2c4d" stroke="none">
<path d="M2905 5991 c-91 -16 -171 -84 -228 -192 -16 -30 -37 -67 -47 -84 -10
-16 -28 -48 -40 -70 -12 -22 -35 -59 -51 -83 -16 -24 -29 -45 -29 -48 0 -2
-33 -59 -73 -127 -40 -67 -76 -129 -80 -137 -4 -8 -16 -28 -27 -45 -11 -16
-23 -37 -27 -45 -4 -8 -47 -82 -95 -163 -48 -81 -88 -149 -88 -152 0 -2 -12
-21 -26 -42 -14 -21 -30 -47 -35 -58 -5 -11 -18 -33 -29 -50 -11 -16 -23 -37
-27 -45 -7 -15 -146 -254 -163 -280 -6 -8 -15 -24 -20 -35 -6 -11 -19 -33 -30
-50 -11 -16 -24 -39 -29 -50 -5 -11 -21 -37 -35 -58 -14 -21 -26 -40 -26 -42
0 -2 -39 -68 -86 -147 -47 -79 -90 -152 -95 -163 -5 -11 -18 -33 -29 -50 -11
-16 -23 -37 -27 -45 -4 -8 -46 -80 -93 -160 -160 -267 -170 -290 -170 -389 0
-102 13 -135 140 -351 48 -80 89 -152 93 -160 9 -18 23 -40 60 -97 15 -24 27
-45 27 -47 0 -4 230 -396 250 -426 6 -8 13 -22 17 -30 7 -16 266 -454 283
-480 6 -8 15 -24 20 -35 6 -11 19 -33 30 -50 11 -16 24 -39 29 -50 5 -11 40
-72 78 -135 38 -63 72 -122 76 -130 4 -8 16 -28 27 -45 11 -16 24 -39 30 -50
6 -11 19 -33 30 -50 11 -16 23 -37 27 -45 8 -17 178 -307 193 -330 6 -8 15
-24 20 -35 6 -11 19 -33 29 -50 11 -16 29 -49 41 -73 29 -57 104 -120 170
-143 52 -18 109 -19 1618 -19 l1563 0 53 24 c29 13 68 39 86 58 29 29 100 129
100 142 0 4 166 289 190 326 6 8 13 22 17 30 4 8 38 67 76 130 38 63 73 124
78 135 5 11 13 27 19 35 24 38 153 257 161 275 5 11 18 34 29 50 11 17 24 39
30 50 5 11 14 27 20 35 5 8 44 74 85 145 41 72 80 137 85 145 6 8 13 22 17 30
7 15 174 300 193 330 6 8 13 22 17 30 8 16 147 256 163 280 6 8 15 24 20 35 6
11 19 34 30 50 11 17 23 37 27 45 4 8 24 44 46 79 21 35 43 74 48 85 5 12 18
35 29 51 11 17 24 39 30 50 5 11 14 27 19 35 32 53 44 102 39 163 -5 57 -11
76 -40 127 -4 8 -12 24 -17 35 -5 11 -21 37 -35 58 -14 21 -26 40 -26 44 0 3
-20 39 -45 80 -25 40 -45 76 -45 78 0 2 -12 21 -26 42 -14 21 -30 47 -35 58
-5 11 -13 27 -18 35 -6 8 -31 51 -56 95 -25 44 -50 87 -55 95 -6 8 -15 24 -20
35 -6 11 -19 34 -30 50 -11 17 -23 37 -27 45 -8 17 -148 258 -163 280 -6 8
-13 22 -17 30 -8 16 -177 306 -193 330 -6 8 -14 24 -19 35 -5 11 -21 37 -35
58 -14 21 -26 40 -26 44 0 5 -74 133 -100 173 -6 8 -15 24 -20 35 -6 11 -19
34 -30 50 -11 17 -23 37 -27 45 -4 8 -26 48 -50 88 -24 41 -43 75 -43 77 0 2
-12 21 -26 42 -14 21 -30 47 -35 58 -5 11 -13 27 -19 35 -5 8 -44 74 -85 145
-41 72 -80 137 -85 145 -6 8 -15 25 -20 38 -32 75 -104 156 -174 194 l-41 23
-1565 1 c-861 1 -1583 -1 -1605 -5z m3135 -203 c25 -15 59 -42 77 -60 26 -28
125 -181 146 -228 4 -8 11 -22 17 -30 17 -26 186 -314 193 -330 4 -8 16 -28
27 -45 11 -16 24 -39 29 -50 5 -12 33 -61 63 -110 30 -50 57 -97 61 -105 4 -8
16 -28 27 -45 11 -16 24 -39 30 -50 5 -11 14 -27 20 -35 5 -8 43 -73 85 -145
41 -71 80 -137 85 -145 6 -8 14 -24 19 -35 5 -11 40 -72 78 -135 38 -63 72
-122 76 -130 4 -8 11 -22 17 -30 16 -25 186 -315 193 -330 4 -8 11 -22 17 -30
15 -22 155 -263 163 -280 4 -8 16 -28 26 -45 55 -85 65 -118 65 -205 -1 -73
-5 -92 -28 -134 -29 -53 -151 -262 -166 -286 -6 -8 -14 -24 -19 -35 -5 -11
-21 -37 -35 -58 -14 -21 -26 -41 -26 -44 0 -3 -18 -35 -40 -70 -23 -35 -45
-74 -51 -86 -5 -12 -18 -35 -29 -52 -11 -16 -23 -37 -27 -45 -4 -8 -32 -58
-63 -110 -31 -52 -60 -102 -63 -110 -4 -8 -16 -28 -27 -45 -11 -16 -24 -39
-30 -50 -5 -11 -14 -27 -20 -35 -15 -23 -126 -213 -133 -230 -4 -8 -16 -28
-27 -45 -11 -16 -23 -37 -27 -45 -4 -8 -46 -80 -93 -160 -48 -80 -89 -152 -93
-160 -4 -8 -11 -22 -17 -30 -5 -8 -44 -73 -85 -145 -41 -71 -80 -137 -85 -145
-6 -8 -14 -24 -19 -35 -5 -11 -21 -37 -35 -58 -14 -21 -26 -40 -26 -42 0 -2
-27 -49 -60 -104 -33 -56 -60 -105 -60 -109 0 -4 -26 -32 -59 -63 -44 -42 -74
-61 -121 -78 l-64 -21 -1401 0 c-1328 0 -1404 1 -1467 18 -67 19 -133 60 -166
103 -20 26 -112 177 -112 184 0 2 -12 21 -26 42 -14 21 -30 47 -35 58 -9 21
-15 30 -61 103 -16 24 -28 45 -28 47 0 3 -27 50 -60 106 -33 55 -60 102 -60
104 0 2 -13 23 -29 47 -16 24 -39 61 -51 83 -12 22 -30 54 -41 70 -10 17 -23
39 -29 50 -5 11 -14 27 -20 35 -24 38 -190 322 -190 325 0 2 -12 21 -26 42
-14 21 -30 47 -35 58 -5 11 -13 27 -19 35 -22 35 -190 321 -190 325 0 2 -12
21 -26 42 -14 21 -30 47 -35 58 -5 11 -13 27 -19 35 -18 28 -190 322 -190 326
0 1 -12 22 -27 46 -16 24 -33 52 -40 63 -30 49 -54 112 -65 171 -21 116 10
207 142 414 6 8 14 24 19 35 5 11 21 37 35 58 14 21 26 40 26 42 0 2 27 49 60
104 33 56 60 103 60 106 0 2 12 21 26 42 14 21 30 47 35 58 5 11 18 34 29 50
11 17 24 39 30 50 6 11 20 36 31 55 12 19 57 96 100 170 44 74 84 142 89 150
6 8 14 24 19 35 5 11 21 37 35 58 14 21 26 40 26 42 0 2 60 104 133 227 73
122 136 230 140 238 4 8 11 22 17 30 15 22 155 263 164 280 8 17 19 35 57 95
14 22 29 47 33 55 4 8 12 24 19 35 7 11 26 45 44 75 55 95 144 162 228 173 17
2 680 4 1475 3 l1445 -1 45 -27z"/>
<path d="M3040 5732 c-20 -9 -44 -24 -55 -32 -27 -20 -93 -108 -112 -150 -4
-8 -47 -81 -95 -163 -48 -81 -88 -149 -88 -152 0 -2 -12 -21 -26 -42 -14 -21
-30 -47 -35 -58 -5 -11 -13 -27 -19 -35 -5 -8 -51 -85 -100 -170 -50 -85 -95
-162 -100 -170 -6 -8 -15 -24 -20 -35 -6 -11 -19 -33 -30 -50 -11 -16 -24 -39
-29 -50 -5 -11 -21 -37 -35 -58 -14 -21 -26 -39 -26 -41 0 -4 -172 -299 -190
-326 -6 -8 -13 -22 -17 -30 -4 -8 -18 -33 -32 -55 -38 -59 -49 -78 -58 -95 -7
-16 -177 -304 -193 -330 -6 -8 -14 -24 -19 -35 -5 -11 -21 -37 -35 -58 -14
-21 -26 -40 -26 -42 0 -3 -17 -33 -38 -67 -110 -180 -116 -195 -116 -293 0
-84 2 -95 34 -155 19 -36 46 -83 60 -105 14 -22 31 -49 38 -60 6 -11 16 -29
21 -40 5 -11 21 -37 35 -58 14 -21 26 -40 26 -42 0 -3 27 -50 60 -106 33 -55
60 -102 60 -104 0 -2 12 -21 26 -42 14 -21 30 -47 35 -58 5 -11 15 -29 21 -40
7 -10 24 -37 38 -60 13 -22 30 -49 37 -60 7 -11 15 -27 19 -35 8 -16 177 -305
194 -330 6 -8 14 -24 19 -35 5 -11 21 -37 35 -58 14 -21 26 -40 26 -43 0 -4
167 -288 190 -324 6 -8 15 -24 20 -35 6 -11 19 -33 30 -50 11 -16 24 -39 29
-50 8 -18 167 -287 191 -325 6 -8 15 -24 20 -35 6 -11 19 -33 30 -50 11 -16
23 -37 27 -45 3 -8 18 -33 32 -55 14 -22 30 -49 36 -59 5 -10 26 -32 47 -49
72 -58 35 -56 1543 -57 1482 0 1443 -1 1516 50 29 22 107 130 129 182 5 12 16
32 22 43 7 10 24 37 38 60 13 22 30 49 37 60 7 11 15 27 19 35 4 8 25 44 47
79 21 35 43 74 48 85 9 22 14 30 62 104 15 24 27 45 27 47 0 3 18 35 41 71 22
37 45 77 50 88 5 12 18 35 29 51 11 17 24 39 30 50 5 11 14 27 20 35 15 23
155 263 163 280 4 8 16 29 27 45 11 17 23 37 27 45 8 17 148 257 163 280 6 8
14 24 19 35 5 11 21 37 35 58 14 21 26 40 26 42 0 3 19 37 43 77 24 40 46 80
50 88 4 8 16 29 27 45 11 17 24 39 30 50 6 11 23 40 38 65 47 78 156 269 179
313 34 66 31 138 -10 217 -19 36 -44 81 -55 100 -12 19 -25 42 -29 50 -8 16
-148 257 -163 280 -6 8 -15 24 -20 35 -6 11 -19 34 -30 50 -11 17 -23 37 -27
45 -7 17 -118 207 -133 230 -6 8 -15 24 -20 35 -6 11 -19 34 -30 50 -11 17
-23 37 -27 45 -6 15 -145 253 -163 280 -6 8 -14 25 -20 37 -5 12 -27 51 -50
86 -22 35 -40 67 -40 70 0 3 -12 23 -26 44 -14 21 -30 47 -35 58 -5 11 -13 27
-19 35 -14 21 -185 313 -194 330 -4 8 -12 24 -19 35 -7 11 -37 63 -67 115 -30
52 -60 104 -67 115 -7 11 -17 29 -23 40 -6 11 -19 34 -30 50 -10 17 -29 49
-42 73 -29 55 -79 107 -128 132 -39 20 -61 20 -1482 20 -1343 -1 -1445 -2
-1478 -18z m2718 -765 c112 -53 163 -110 216 -241 21 -52 24 -466 3 -466 -7 0
-68 55 -135 123 l-122 124 0 54 c-1 71 -27 124 -73 149 -36 20 -62 20 -1194
20 -1113 0 -1159 -1 -1186 -19 -61 -40 -57 60 -57 -1537 0 -1370 1 -1466 17
-1492 10 -15 22 -30 28 -34 5 -4 549 -8 1207 -8 l1197 0 28 24 28 24 3 849 2
849 125 123 c87 87 129 122 140 117 14 -5 15 -99 13 -988 l-3 -983 -23 -45
c-13 -25 -30 -57 -38 -72 -21 -38 -116 -123 -166 -146 -114 -54 -58 -52 -1315
-52 -1053 0 -1170 2 -1231 17 -102 25 -192 102 -240 208 -57 122 -52 -18 -52
1611 0 1359 2 1501 16 1548 9 28 21 58 25 66 5 8 13 24 18 36 11 24 96 102
126 115 11 5 27 13 35 18 70 41 20 40 1312 40 l1228 1 68 -33z m177 -737 c230
-231 240 -242 240 -279 0 -37 -9 -48 -178 -216 -166 -165 -181 -178 -220 -182
-54 -6 -53 -7 -310 253 -177 179 -209 216 -214 247 -6 37 -5 38 183 227 173
174 192 190 224 190 32 0 53 -19 275 -240z m-972 103 c28 -28 37 -44 37 -71 0
-47 -28 -90 -72 -113 -36 -18 -69 -19 -758 -19 -650 0 -724 2 -753 16 -81 42
-97 133 -34 194 l31 30 756 0 757 0 36 -37z m-297 -288 c68 -52 64 -151 -8
-195 -32 -19 -49 -20 -633 -20 l-600 0 -39 34 c-37 31 -40 37 -40 86 0 49 3
56 39 87 l38 33 605 0 605 0 33 -25z m765 -328 c227 -226 232 -233 233 -273
l1 -42 -550 -551 c-514 -514 -552 -551 -585 -551 -31 0 -53 19 -277 242 -289
289 -282 274 -180 375 34 34 278 278 542 543 264 265 489 486 500 491 54 23
75 7 316 -234z m-933 40 c10 -10 27 -35 37 -57 21 -46 11 -81 -32 -122 l-25
-23 -539 0 -539 0 -27 27 c-23 23 -27 36 -27 82 0 45 4 59 24 79 14 14 34 27
45 30 11 3 255 4 541 4 485 -2 523 -3 542 -20z m-216 -280 c15 -12 34 -39 43
-60 14 -35 14 -40 -4 -76 -11 -21 -36 -48 -56 -60 -35 -20 -46 -21 -431 -21
l-394 0 -41 25 c-47 30 -63 64 -56 120 4 29 14 47 38 68 l33 27 421 0 c418 -1
420 -1 447 -23z m-115 -988 c125 -128 236 -239 246 -248 33 -30 9 -91 -37 -91
-12 -1 -32 -7 -46 -15 -14 -8 -34 -14 -45 -15 -11 0 -33 -7 -49 -15 -15 -8
-35 -15 -43 -15 -8 0 -29 -6 -46 -13 -39 -17 -82 -32 -167 -58 -36 -12 -81
-27 -100 -34 -98 -35 -137 -47 -198 -62 -44 -11 -76 42 -52 85 13 23 39 98 50
142 4 19 13 49 19 65 24 66 63 182 70 210 5 17 13 41 19 55 5 14 18 52 27 85
10 33 24 74 31 90 7 17 15 38 18 48 4 12 16 17 40 17 32 0 52 -18 263 -231z"/>
<path d="M3235 4950 c-3 -5 -15 -10 -26 -10 -47 0 -163 -90 -195 -152 -45 -87
-44 -54 -44 -1616 0 -1606 -3 -1501 56 -1608 32 -60 65 -96 124 -137 l45 -32
1250 0 1250 0 53 28 c56 30 126 93 157 142 52 81 50 32 52 1035 2 514 1 941
-2 948 -3 9 -41 -22 -105 -86 l-100 -100 0 -844 0 -844 -32 -31 c-18 -17 -48
-35 -67 -42 -51 -17 -2331 -16 -2380 2 -39 13 -57 28 -83 69 -17 26 -18 114
-18 1502 0 1452 0 1475 20 1508 11 19 33 44 49 56 l30 22 1185 0 c1179 0 1185
0 1220 -21 51 -30 76 -78 76 -148 l0 -58 90 -92 c49 -50 95 -91 102 -91 10 0
12 35 10 157 -2 147 -11 217 -33 253 -5 8 -13 25 -19 37 -11 27 -99 113 -114
113 -7 0 -17 5 -24 12 -37 37 -49 38 -1304 38 -801 0 -1219 -3 -1223 -10z"/>
<path d="M5470 4258 c-137 -137 -173 -179 -173 -200 0 -21 44 -70 220 -247
186 -187 224 -221 249 -221 24 0 57 28 202 173 94 95 172 179 172 188 0 22
-458 479 -480 479 -9 0 -95 -77 -190 -172z"/>
<path d="M3444 4332 c-36 -5 -66 -45 -62 -83 2 -25 12 -39 37 -56 l34 -23 714
0 c506 0 721 3 736 11 30 16 57 50 57 74 0 11 -11 34 -24 50 l-24 30 -724 0
c-397 1 -733 -1 -744 -3z"/>
<path d="M3430 4022 c-57 -29 -67 -85 -23 -127 l28 -25 595 0 c561 0 596 2
619 19 35 27 35 95 1 121 -24 18 -53 20 -610 22 -462 2 -589 0 -610 -10z"/>
<path d="M4583 3373 c-299 -301 -543 -552 -543 -558 0 -13 475 -485 488 -485
17 0 1097 1091 1100 1111 5 31 -442 479 -477 479 -19 0 -145 -121 -568 -547z"/>
<path d="M3402 3717 c-29 -31 -29 -77 1 -105 l23 -22 525 2 524 3 16 35 c15
32 15 38 2 65 -9 17 -21 33 -27 37 -6 4 -243 8 -527 8 l-516 0 -21 -23z"/>
<path d="M3408 3447 c-49 -40 -34 -118 25 -132 43 -11 826 0 837 11 6 6 13 27
17 47 5 31 1 40 -25 67 l-30 30 -399 0 c-398 -1 -398 -1 -425 -23z"/>
<path d="M3894 2673 c-3 -10 -12 -30 -20 -45 -8 -14 -14 -35 -14 -47 0 -11 -6
-35 -14 -53 -19 -44 -66 -187 -73 -218 -3 -14 -11 -39 -19 -57 -8 -17 -14 -38
-14 -46 0 -8 -7 -28 -15 -43 -8 -16 -15 -38 -15 -50 0 -11 -7 -29 -15 -40 -8
-10 -15 -30 -15 -45 0 -14 -5 -30 -12 -37 -27 -27 39 -28 112 -2 19 7 51 18
70 25 19 7 51 18 70 24 19 7 49 16 65 21 40 11 94 30 130 45 17 8 41 16 55 18
24 5 50 13 130 43 19 7 47 15 63 19 24 5 26 8 17 25 -14 25 -461 480 -472 480
-5 0 -11 -8 -14 -17z"/>
</g>
</svg>
