<?xml version="1.0" encoding="iso-8859-1"?>
<!-- Generator: Adobe Illustrator 16.0.0, SVG Export Plug-In . SVG Version: 6.00 Build 0)  -->
<!DOCTYPE svg PUBLIC "-//W3C//DTD SVG 1.1//EN" "http://www.w3.org/Graphics/SVG/1.1/DTD/svg11.dtd">
<svg version="1.1" id="Capa_1" xmlns="http://www.w3.org/2000/svg" xmlns:xlink="http://www.w3.org/1999/xlink" x="0px" y="0px"
	 width="432.416px" height="432.415px" viewBox="0 0 432.416 432.415" style="enable-background:new 0 0 432.416 432.415;"
	 xml:space="preserve" fill="white">
<g>
	<path d="M128.921,95.506h226.66c4.071,0,7.365-3.294,7.365-7.363V21.15c0-4.074-3.294-7.363-7.365-7.363h-226.66
		c-4.081,0-7.375,3.294-7.375,7.363v66.988C121.542,92.212,124.841,95.506,128.921,95.506z M145.501,33.399h96.746v38.708h-96.746
		V33.399z M128.921,194.333h226.66c4.071,0,7.365-3.297,7.365-7.363v-67.005c0-4.062-3.294-7.365-7.365-7.365h-226.66
		c-4.081,0-7.375,3.308-7.375,7.365v67C121.542,191.037,124.841,194.333,128.921,194.333z M145.501,131.228h96.746v38.698h-96.746
		V131.228z M128.921,210.476h220.077c-12.162,6.761-22.299,17.07-28.864,30.061c-0.841,1.674-1.695,3.306-2.54,4.881
		c-12.957-17.74-33.907-29.275-57.51-29.275H121.89C122.681,212.914,125.455,210.476,128.921,210.476z M429.967,261.538
		c-4.06-12.39-12.7-22.436-24.304-28.312c-6.808-3.459-14.427-5.275-22.016-5.275c-18.499,0-35.181,10.243-43.53,26.748
		c-10.641,21.022-21.109,35.72-31.918,44.642c0.434-2.618,0.646-5.288,0.646-7.989c0-26.889-21.871-48.769-48.767-48.769H100.781
		c-5.384,0-9.748,4.379-9.748,9.763l-0.025,145.248c0,2.583,1.032,5.067,2.86,6.896c1.833,1.822,4.31,2.858,6.896,2.858
		l181.078-0.178c78.807-0.317,124.854-68.071,145.28-108.422C433.01,287.136,434.028,273.916,429.967,261.538z M409.735,289.937
		c-18.42,36.378-59.536,97.445-127.933,97.73l-171.282,0.153l0.018-125.725h149.546c16.137,0,29.266,13.122,29.266,29.255
		c0,6.729-2.376,13.022-6.546,18.197H174.476c-5.385,0-9.753,4.368-9.753,9.752c0,5.385,4.368,9.751,9.753,9.751h112.806
		c0.305,0,0.589-0.071,0.893-0.093c0.112-0.011,0.233,0.021,0.354,0.012c0.175-0.033,0.347-0.083,0.52-0.105
		c0.117-0.021,0.219-0.043,0.322-0.054c33.483-4.837,54.012-37.374,68.16-65.314c5.02-9.904,15.015-16.049,26.123-16.049
		c4.604,0,9.034,1.056,13.188,3.169c6.982,3.522,12.161,9.554,14.594,16.984C413.858,275.032,413.261,282.966,409.735,289.937z
		 M0,418.628h79.125V231.934H0V418.628z M39.565,252.881c8.383,0,15.18,6.796,15.18,15.18c0,8.383-6.796,15.168-15.18,15.168
		c-8.378,0-15.174-6.785-15.174-15.168C24.392,259.677,31.183,252.881,39.565,252.881z"/>
</g>
<g>
</g>
<g>
</g>
<g>
</g>
<g>
</g>
<g>
</g>
<g>
</g>
<g>
</g>
<g>
</g>
<g>
</g>
<g>
</g>
<g>
</g>
<g>
</g>
<g>
</g>
<g>
</g>
<g>
</g>
</svg>
