<?xml version="1.0" encoding="iso-8859-1"?>
<!-- Generator: Adobe Illustrator 19.0.0, SVG Export Plug-In . SVG Version: 6.00 Build 0)  -->
<svg version="1.1" id="Layer_1" xmlns="http://www.w3.org/2000/svg" xmlns:xlink="http://www.w3.org/1999/xlink" x="0px" y="0px"
	 viewBox="0 0 512 512" style="enable-background:new 0 0 512 512;" xml:space="preserve" fill="white">
<g>
	<g>
		<path d="M460.255,228.755h-2.723v-73.521c0-17.221-10.936-32.69-27.213-38.492c-4.252-1.515-8.924,0.703-10.439,4.952
			c-1.515,4.251,0.703,8.924,4.952,10.439c9.786,3.488,16.36,12.772,16.36,23.1v73.521h-38.128V8.181c0-4.513-3.657-8.17-8.17-8.17
			H117.106c-4.512,0-8.17,3.657-8.17,8.17v220.574H70.809v-73.521c0-10.328,6.575-19.612,16.361-23.1
			c4.25-1.515,6.468-6.189,4.952-10.439c-1.515-4.251-6.191-6.469-10.439-4.952c-16.277,5.802-27.214,21.271-27.214,38.492v73.521
			h-2.723C23.213,228.755,0,251.968,0,280.5v223.319c0,4.513,3.658,8.17,8.17,8.17h495.66c4.513,0,8.17-3.657,8.17-8.17V280.5
			C512,251.968,488.787,228.755,460.255,228.755z M125.277,16.351h261.447v212.404H125.277V16.351z M419.404,495.649H92.596v-65.362
			h326.808V495.649z M419.404,413.947H92.596v-16.34h326.808V413.947z M495.66,495.649h-59.915V389.436
			c0-4.513-3.657-8.17-8.17-8.17H84.426c-4.512,0-8.17,3.657-8.17,8.17v106.213H16.34V280.5c0-19.522,15.883-35.404,35.404-35.404
			h408.511c19.522,0,35.404,15.882,35.404,35.404V495.649z"/>
	</g>
</g>
<g>
	<g>
		<path d="M324.085,70.809h-136.17c-4.512,0-8.17,3.657-8.17,8.17c0,4.513,3.658,8.17,8.17,8.17h136.17
			c4.513,0,8.17-3.657,8.17-8.17C332.255,74.466,328.598,70.809,324.085,70.809z"/>
	</g>
</g>
<g>
	<g>
		<path d="M324.085,114.383h-136.17c-4.512,0-8.17,3.657-8.17,8.17c0,4.513,3.658,8.17,8.17,8.17h136.17
			c4.513,0,8.17-3.657,8.17-8.17C332.255,118.04,328.598,114.383,324.085,114.383z"/>
	</g>
</g>
<g>
	<g>
		<path d="M271.979,157.957h-84.064c-4.512,0-8.17,3.657-8.17,8.17s3.658,8.17,8.17,8.17h84.064c4.513,0,8.17-3.657,8.17-8.17
			S276.492,157.957,271.979,157.957z"/>
	</g>
</g>
<g>
	<g>
		<path d="M471.149,315.904H40.851c-4.512,0-8.17,3.657-8.17,8.17s3.658,8.17,8.17,8.17h430.298c4.513,0,8.17-3.657,8.17-8.17
			S475.662,315.904,471.149,315.904z"/>
	</g>
</g>
<g>
	<g>
		<path d="M438.468,272.33h-10.894c-4.513,0-8.17,3.657-8.17,8.17s3.657,8.17,8.17,8.17h10.894c4.513,0,8.17-3.657,8.17-8.17
			S442.981,272.33,438.468,272.33z"/>
	</g>
</g>
<g>
</g>
<g>
</g>
<g>
</g>
<g>
</g>
<g>
</g>
<g>
</g>
<g>
</g>
<g>
</g>
<g>
</g>
<g>
</g>
<g>
</g>
<g>
</g>
<g>
</g>
<g>
</g>
<g>
</g>
</svg>
